<?xml version="1.0" encoding="utf-8"?>
<!-- Generator: Adobe Illustrator 23.0.1, SVG Export Plug-In . SVG Version: 6.00 Build 0)  -->
<svg version="1.0" id="Layer_1" xmlns="http://www.w3.org/2000/svg" xmlns:xlink="http://www.w3.org/1999/xlink" x="0px" y="0px"
	 viewBox="0 0 50 50" style="enable-background:new 0 0 50 50;" xml:space="preserve">
<style type="text/css">
	.st0{fill:#0057FF;}
</style>
<g>
	<g>
		<path class="st0" d="M25,48.9C11.8,48.9,1.1,38.2,1.1,25S11.8,1.1,25,1.1c13.2,0,23.9,10.7,23.9,23.9S38.2,48.9,25,48.9z M25,3
			C12.9,3,3,12.9,3,25s9.9,22,22,22c12.1,0,22-9.9,22-22S37.1,3,25,3z"/>
	</g>
	<g>
		<path class="st0" d="M15.9,42c-1.6,0-3.1-1.9-4.7-6.3c-1.1-2.9-1.9-5.9-2-6.4c-0.1-0.7-0.4-0.8-1.2-1c-0.8-0.2-2-0.6-2.3-2.1
			c-0.3-1.3,0-2.7,0.3-3.9c0.1-0.3,0.1-0.7,0.2-1c0.3-1.5,2.3-4.5,4.7-4.5c0.1,0,0.1,0,0.2,0c-0.3-0.1-0.5-0.3-0.7-0.5
			c-0.3-0.4-0.4-0.8-0.3-1.3c0.4-1.9,3.2-2.6,6.4-3c-0.2-0.2-0.3-0.5-0.3-0.9c0-1.9,3.8-2.3,4.7-2.3c0.9,0,1.5,0.2,1.9,0.6l0.2,0.2
			c0.4,0.1,0.6,0.4,0.7,0.5c0,0,0,0.1,0.1,0.1c0.6-0.3,1.3-0.6,1.8-0.9c0.2-0.1,0.5-0.2,0.8-0.2c0.5,0,0.8,0.3,1,0.4
			c0.3-0.5,0.8-1.3,1.9-1.4c0.5-0.2,1.7-1.1,1.9-1.6c0.2-0.4,0.7-1.2,2-0.7c0.9,0.3,2.4,1,2.7,2.1c0,0,0,0,0,0
			c1.1,1,4.3,4.2,5.4,7.8c0.7,2.3-0.2,4.7-0.9,6.4c-0.3,0.6-0.5,1.2-0.5,1.6l0,0c-0.1,0.4,0.2,1.2,0.4,1.8c0.3,1,0.5,1.8,0.1,2.4
			c-0.2,0.3-0.6,0.5-1,0.5h0c-0.5,0-1.1-0.2-2.6-1.4c-1.3-1-1.8-1.2-2-1.2c-0.2,0-0.6,0.9-1,1.6l-0.2,0.5c-0.3,0.6-0.9,1-1.5,1
			c-0.5,0-1-0.2-1.4-0.7c-1.7-1.9-6.4-4.4-7.9-4.7c-0.4,0.7-0.8,1-1.5,1c-0.7,0-1.2-0.5-1.7-0.9c-0.3-0.2-0.6-0.5-0.8-0.6
			c0.4,1.1,1.4,2.6,2.1,3.7c1.4,2.2,2.5,3.7,1.4,4.8c-1.6,1.6-1.9,2.9-2.3,4.5c-0.4,1.4-0.8,2.9-2,4.7C17.1,41.8,16.4,42,15.9,42z
			 M10.9,18.8c-1.1,0-2.6,2-2.8,2.9c-0.1,0.3-0.1,0.7-0.2,1c-0.2,1-0.5,2.1-0.3,3.1c0.1,0.4,0.2,0.4,0.9,0.7
			c0.8,0.2,2.1,0.6,2.5,2.4c0.6,3.1,3.5,11.1,4.8,11.2c0,0,0.1-0.1,0.3-0.3c1.1-1.5,1.4-2.8,1.7-4.1c0.4-1.6,0.9-3.3,2.6-5.1
			c-0.2-0.5-1-1.7-1.5-2.6c-1.4-2.1-2.8-4.3-2.5-6l0-0.2c-0.7,0.3-1.4,0.3-2.1,0c-1.5-0.8-1.9-1.2-2.3-1.8c-0.2-0.2-0.3-0.4-0.6-0.7
			C11.3,18.8,11,18.8,10.9,18.8z M22.4,21.7c1.9,0,7.4,3.1,9.5,5.3l0.1-0.2c0.6-1.4,1.2-2.8,2.7-2.8c0.8,0,1.8,0.5,3.2,1.6
			c0.1,0.1,0.2,0.2,0.3,0.3c-0.2-0.8-0.4-1.6-0.3-2.3v0l0,0v0c0,0,0,0,0,0l0.1-0.6l0,0c0-0.2,0.1-0.4,0.2-0.5
			c0.1-0.3,0.2-0.6,0.3-0.9c0.6-1.5,1.4-3.5,0.9-5.1c-0.6-2.1-2.3-4.4-4.9-7c-0.3-0.2-0.5-0.5-0.6-0.9c-0.1-0.2-0.6-0.4-1.3-0.7
			c-0.7,0.9-2.3,2.1-3,2.3l-0.2,0c-0.2,0-0.3,0.1-0.6,0.6c-0.2,0.4-0.7,1.1-1.5,1.1c-0.5,0-0.9-0.3-1.2-0.5c-0.8,0.4-3,1.6-4.1,1.6
			c-0.4,0-0.6-0.1-0.8-0.2L21.2,13c-0.3,0.5-0.7,0.6-2.4,0.7c-4.6,0.4-6.2,1-6.7,1.5c0.1,0,0.1,0,0.2,0c0.2,0,0.3,0,0.4-0.1
			c0.2-0.2,0.5-0.4,0.9-0.4c0.7,0,1.1,0.5,1.6,1.1c0.1,0.1,0.3,0.3,0.4,0.4c0.2-0.1,0.3-0.1,0.5-0.1c1.2,0,2.2,1.3,2.2,2.9
			c0,0.8-0.3,1.5-0.8,2c0.2,0,0.4-0.1,0.6-0.1c1.1,0,2,0.7,2.6,1.2c0.1,0.1,0.2,0.2,0.4,0.3c0,0,0,0,0-0.1
			C21.2,22.3,21.5,21.7,22.4,21.7z M38.4,23.6l0.5,0.1L38.4,23.6z M12,17.1c0.3,0.2,0.7,0.4,0.9,0.7c0.4,0.4,0.6,0.7,0.8,0.9
			c0.3,0.4,0.5,0.7,1.7,1.3c0.3,0.2,0.6,0,0.7-0.2c0.2-0.2,0.3-0.5,0.3-0.7c0-0.5-0.2-0.8-0.3-0.9c-0.2,0.1-0.4,0.1-0.6,0.1
			c-0.7,0-1.3-0.6-1.8-1.2c-0.1-0.1-0.2-0.2-0.2-0.3C13.1,17.1,12.5,17.2,12,17.1z M19.1,11c0.6,0.1,1.2,0.3,1.7,0.6
			c0-0.2,0-0.4,0.1-0.6c0-0.1,0-0.1-0.1-0.2C20.3,10.8,19.7,10.9,19.1,11z"/>
	</g>
</g>
</svg>
