<?xml version="1.0" encoding="utf-8"?>
<!-- Generator: Adobe Illustrator 23.0.1, SVG Export Plug-In . SVG Version: 6.00 Build 0)  -->
<svg version="1.0" id="Layer_1" xmlns="http://www.w3.org/2000/svg" xmlns:xlink="http://www.w3.org/1999/xlink" x="0px" y="0px"
	 viewBox="0 0 50 50" style="enable-background:new 0 0 50 50;" xml:space="preserve">
<style type="text/css">
	.st0{fill:#0057FF;}
</style>
<g>
	<path class="st0" d="M30.4,16.8l-2.3-1.5c1.1-0.9,1.9-2.3,1.9-3.9c0-2.8-2.3-5-5-5c-2.8,0-5,2.3-5,5c0,1.6,0.7,3,1.9,3.9l-2.3,1.5
		c-1,0.7-1.7,2.2-1.4,3.4l1.5,7.4c0.2,0.8,0.3,2.3,0.3,3.2v12.7c0,1.4,1.1,2.5,2.5,2.5h0.9c0.7,0,1.3-0.3,1.8-0.7
		c0.5,0.5,1.1,0.7,1.8,0.7h0.7c1.4,0,2.5-1.1,2.5-2.5V30.8c0-0.9,0.1-2.3,0.3-3.2l1.5-7.4C32.1,19,31.5,17.5,30.4,16.8z M24.9,8
		c1.8,0,3.4,1.5,3.4,3.4c0,1.8-1.5,3.4-3.4,3.4s-3.4-1.5-3.4-3.4C21.6,9.5,23.1,8,24.9,8z M30.2,19.9l-1.5,7.4
		c-0.2,1-0.3,2.5-0.3,3.5v12.7c0,0.5-0.4,0.8-0.8,0.8h-0.7c-0.5,0-0.8-0.4-0.8-0.8V33.4c0-1.8,0-2.5-0.9-2.5c-0.9,0-0.9,0.7-0.9,2.5
		v10.1c0,0.4-0.4,0.8-0.9,0.8h-0.9c-0.5,0-0.8-0.4-0.8-0.8V30.8c0-1-0.2-2.5-0.3-3.5l-1.5-7.4c-0.1-0.6,0.2-1.4,0.7-1.7l3-2
		c0.2,0.1,0.4,0.1,0.7,0.2v5.1c0,0.5,0.4,0.8,0.8,0.8s0.8-0.4,0.8-0.8v-5.1c0.2,0,0.5-0.1,0.7-0.2l3,2C30,18.5,30.3,19.3,30.2,19.9z
		"/>
	<path class="st0" d="M17.9,28l-1.1-5.7l-0.2,0.8c-0.2,1-0.3,2.5-0.3,3.5v11.3c0,0.5-0.4,0.8-0.8,0.8H15c-0.5,0-0.8-0.4-0.8-0.8V29
		c0-1.8,0-2.5-0.9-2.5s-0.9,0.7-0.9,2.5v8.8c0,0.4-0.4,0.8-0.9,0.8h-0.5c-0.5,0-0.8-0.4-0.8-0.8V26.6c0-1-0.2-2.5-0.3-3.5l-1.3-6.5
		c-0.1-0.6,0.2-1.4,0.7-1.7l2.6-1.7c0.2,0.1,0.3,0.1,0.5,0.1v4.7c0,0.5,0.4,0.8,0.8,0.8c0.5,0,0.8-0.4,0.8-0.8v-4.7
		c0.2,0,0.4-0.1,0.5-0.1l2.6,1.7c0.3,0.2,0.6,0.7,0.7,1.1c0.2-0.2,0.4-0.4,0.7-0.6l0.7-0.5c-0.1-0.2-0.2-0.4-0.3-0.6
		c-0.2-0.3-0.5-0.6-0.8-0.8l-1.9-1.3c1-0.9,1.6-2.1,1.6-3.6c0-2.6-2.1-4.7-4.7-4.7c-2.6,0-4.7,2.1-4.7,4.7c0,1.4,0.6,2.7,1.6,3.6
		l-1.9,1.3c-1,0.7-1.7,2.2-1.4,3.4l1.3,6.5c0.2,0.8,0.3,2.3,0.3,3.2v11.3c0,1.4,1.1,2.5,2.5,2.5h0.5c0.7,0,1.3-0.3,1.8-0.7
		c0.5,0.4,1.1,0.7,1.8,0.7h0.4c1.4,0,2.5-1.1,2.5-2.5v-9.7C17.9,28.1,17.9,28,17.9,28z M13.2,5.7c1.6,0,3,1.3,3,3c0,1.6-1.3,3-3,3
		c-1.6,0-3-1.3-3-3C10.2,7,11.5,5.7,13.2,5.7z"/>
	<path class="st0" d="M32.1,28.1v9.7c0,1.4,1.1,2.5,2.5,2.5H35c0.7,0,1.3-0.3,1.8-0.7c0.5,0.4,1.1,0.7,1.8,0.7h0.5
		c1.4,0,2.5-1.1,2.5-2.5V26.6c0-0.9,0.1-2.3,0.3-3.2l1.3-6.5c0.2-1.2-0.4-2.7-1.4-3.4l-1.9-1.3c1-0.9,1.6-2.1,1.6-3.6
		c0-2.6-2.1-4.7-4.7-4.7c-2.6,0-4.7,2.1-4.7,4.7c0,1.4,0.6,2.7,1.6,3.6l-1.9,1.3c-0.3,0.2-0.6,0.5-0.8,0.8c-0.1,0.2-0.2,0.4-0.3,0.6
		l0.7,0.5c0.2,0.2,0.5,0.4,0.7,0.6c0.1-0.4,0.4-0.9,0.7-1.1l2.6-1.7c0.2,0.1,0.3,0.1,0.5,0.1v4.7c0,0.5,0.4,0.8,0.8,0.8
		c0.5,0,0.8-0.4,0.8-0.8v-4.7c0.2,0,0.4-0.1,0.5-0.1l2.6,1.7c0.5,0.3,0.8,1.1,0.7,1.7l-1.3,6.5c-0.2,1-0.3,2.5-0.3,3.5v11.3
		c0,0.5-0.4,0.8-0.8,0.8h-0.5c-0.5,0-0.9-0.4-0.9-0.8V29c0-1.8,0-2.5-0.9-2.5c-0.9,0-0.9,0.7-0.9,2.5v8.8c0,0.5-0.4,0.8-0.8,0.8
		h-0.4c-0.5,0-0.8-0.4-0.8-0.8V26.6c0-1-0.2-2.5-0.3-3.5l-0.2-0.8L32.1,28C32.1,28,32.1,28.1,32.1,28.1z M39.8,8.7c0,1.6-1.3,3-3,3
		c-1.6,0-3-1.3-3-3c0-1.6,1.3-3,3-3C38.5,5.7,39.8,7,39.8,8.7z"/>
</g>
</svg>
