<?xml version="1.0" encoding="utf-8"?>
<!-- Generator: Adobe Illustrator 23.0.1, SVG Export Plug-In . SVG Version: 6.00 Build 0)  -->
<svg version="1.0" id="Layer_1" xmlns="http://www.w3.org/2000/svg" xmlns:xlink="http://www.w3.org/1999/xlink" x="0px" y="0px"
	 viewBox="0 0 50 50" style="enable-background:new 0 0 50 50;" xml:space="preserve">
<style type="text/css">
	.st0{fill:#0057FF;}
</style>
<g>
	<g>
		<path class="st0" d="M48.6,18.8L38,8.2c-0.6-0.6-1.3-0.9-2.1-0.9c-0.8,0-1.5,0.3-2.1,0.9l-6.1,6.1c-0.6,0.6-0.9,1.3-0.9,2.1
			c0,0.4,0.1,0.7,0.2,1l-0.8,0.8l1.4,1.4l0.6-0.6l9.3,9.3l-12,12c-0.4,0.4-1,0.4-1.4,0l-4.5-4.5c-0.6,0.4-1.3,0.7-2,0.7l5.2,5.2
			c0.6,0.6,1.3,0.9,2.1,0.9c0.8,0,1.5-0.3,2.1-0.9l12.1-12.1c0.4,0.2,0.9,0.3,1.3,0.3c0.8,0,1.5-0.3,2.1-0.9l6.1-6.1
			c0.6-0.6,0.9-1.3,0.9-2.1C49.5,20.1,49.2,19.4,48.6,18.8z M47.3,21.6l-6.1,6.1c-0.4,0.4-1,0.4-1.4,0L29.1,17.1
			c-0.2-0.2-0.3-0.4-0.3-0.7s0.1-0.5,0.3-0.7l6.1-6.1c0.2-0.2,0.4-0.3,0.7-0.3c0.3,0,0.5,0.1,0.7,0.3l10.6,10.6
			c0.2,0.2,0.3,0.4,0.3,0.7C47.5,21.2,47.4,21.4,47.3,21.6z"/>
		<path class="st0" d="M32.7,27.4l-9.8-9.8c0.2-0.4,0.3-0.8,0.3-1.2c0-0.8-0.3-1.5-0.9-2.1l-6.1-6.1c-0.6-0.6-1.3-0.9-2.1-0.9
			c-0.8,0-1.5,0.3-2.1,0.9L1.4,18.8c-1.1,1.1-1.1,3,0,4.2l6.1,6.1C8,29.7,8.8,30,9.6,30c0.4,0,0.8-0.1,1.2-0.3l4.1,4.1
			c0.6,0.6,1.3,0.9,2.1,0.9c0.8,0,1.5-0.3,2.1-0.9l4.3-4.2c0.4-0.4,1-0.4,1.4,0l2.9,2.9c0.6,0.6,1.3,0.9,2.1,0.9
			c0.8,0,1.5-0.3,2.1-0.9l1-1C33.8,30.4,33.8,28.6,32.7,27.4z M8.9,27.7l-6.1-6.1c-0.4-0.4-0.4-1,0-1.4L13.4,9.6
			c0.2-0.2,0.4-0.3,0.7-0.3c0.3,0,0.5,0.1,0.7,0.3l6.1,6.1c0.2,0.2,0.3,0.4,0.3,0.7s-0.1,0.5-0.3,0.7L10.3,27.7
			C9.9,28.1,9.2,28.1,8.9,27.7z M31.3,30.2l-0.9,0.9c-0.4,0.4-1,0.4-1.4,0l-2.9-2.9c-0.6-0.6-1.3-0.9-2.1-0.9
			c-0.8,0-1.5,0.3-2.1,0.9l-4.3,4.2c-0.2,0.2-0.4,0.3-0.7,0.3c-0.3,0-0.5-0.1-0.7-0.3l-4-4l9.3-9.3l9.7,9.7
			C31.7,29.2,31.7,29.8,31.3,30.2z"/>
	</g>
	<g>
		<circle class="st0" cx="14.5" cy="12.6" r="1"/>
		<circle class="st0" cx="17.4" cy="15.4" r="1"/>
	</g>
	<path class="st0" d="M37.9,13.3c0.4,0.4,0.4,1,0,1.4l0,0c-0.4,0.4-1,0.4-1.4,0l-1.4-1.4c-0.4-0.4-0.4-1,0-1.4l0,0
		c0.4-0.4,1-0.4,1.4,0L37.9,13.3z"/>
	<path class="st0" d="M34.9,16.3c0.4,0.4,0.4,1,0,1.4l0,0c-0.4,0.4-1,0.4-1.4,0l-1.4-1.4c-0.4-0.4-0.4-1,0-1.4l0,0
		c0.4-0.4,1-0.4,1.4,0L34.9,16.3z"/>
</g>
</svg>
