<?xml version="1.0" encoding="utf-8"?>
<!-- Generator: Adobe Illustrator 23.0.1, SVG Export Plug-In . SVG Version: 6.00 Build 0)  -->
<svg version="1.0" id="Layer_1" xmlns="http://www.w3.org/2000/svg" xmlns:xlink="http://www.w3.org/1999/xlink" x="0px" y="0px"
	 viewBox="0 0 50 50" style="enable-background:new 0 0 50 50;" xml:space="preserve">
<style type="text/css">
	.st0{fill:#0057FF;}
</style>
<g>
	<path class="st0" d="M45.3,4.6H4.7C3.2,4.6,2,5.8,2,7.4v26.5c0,1.5,1.2,2.8,2.8,2.8h16.5l-2.7,7.5c-0.2,0.5,0.1,1,0.6,1.2
		c0.5,0.2,1-0.1,1.2-0.6l3-8.1h0.9v6c0,0.5,0.4,0.9,0.9,0.9s0.9-0.4,0.9-0.9v-6h0.9l3,8.1c0.2,0.5,0.7,0.7,1.2,0.6
		c0.5-0.2,0.7-0.7,0.6-1.2l-2.7-7.5h16.5c1.5,0,2.8-1.2,2.8-2.8V7.4C48,5.8,46.8,4.6,45.3,4.6z M46.2,33.9c0,0.5-0.4,0.9-0.9,0.9
		H4.7c-0.5,0-0.9-0.4-0.9-0.9V7.4c0-0.5,0.4-0.9,0.9-0.9h40.5c0.5,0,0.9,0.4,0.9,0.9V33.9z"/>
	<path class="st0" d="M39.6,10.7c-1,0-1.8,0.8-1.8,1.8c0,0.2,0,0.4,0.1,0.5l-9.6,10.1c-0.1,0-0.3-0.1-0.4-0.1c-0.2,0-0.4,0-0.6,0.1
		l-5.4-4.7c0-0.1,0-0.2,0-0.4c0-1-0.8-1.8-1.8-1.8c-1,0-1.8,0.8-1.8,1.8c0,0.2,0,0.3,0.1,0.5L10.9,26c-0.2,0-0.3-0.1-0.5-0.1
		c-1,0-1.8,0.8-1.8,1.8c0,1,0.8,1.8,1.8,1.8c1,0,1.8-0.8,1.8-1.8c0-0.2,0-0.3-0.1-0.5l7.3-7.3c0.2,0,0.3,0.1,0.5,0.1
		c0.2,0,0.4,0,0.6-0.1l5.4,4.7c0,0.1,0,0.2,0,0.4c0,1,0.8,1.8,1.8,1.8c1,0,1.8-0.8,1.8-1.8c0-0.2,0-0.4-0.1-0.5l9.6-10.1
		c0.1,0,0.3,0.1,0.4,0.1c1,0,1.8-0.8,1.8-1.8C41.4,11.5,40.6,10.7,39.6,10.7z"/>
</g>
</svg>
