<?xml version="1.0" encoding="utf-8"?>
<!-- Generator: Adobe Illustrator 23.0.1, SVG Export Plug-In . SVG Version: 6.00 Build 0)  -->
<svg version="1.0" id="Layer_1" xmlns="http://www.w3.org/2000/svg" xmlns:xlink="http://www.w3.org/1999/xlink" x="0px" y="0px"
	 viewBox="0 0 227 64" style="enable-background:new 0 0 227 64;" xml:space="preserve">
<style type="text/css">
	.st0{fill:#F05A22;}
	.st1{clip-path:url(#SVGID_2_);fill:url(#SVGID_3_);}
</style>
<g>
	<path class="st0" d="M57.4,63.3c3.9,0,5.2-3.1,5.2-4.9V36.5c0-3.1,1.5-4.9,4.1-4.9c2.7,0,4.1,1.8,4.1,4.9v21.9
		c0,1.8,1.2,4.9,5.2,4.9c3.9,0,5.2-3.1,5.2-4.9V37c0-9.1-6.3-14.2-13.8-14.2c-4.2,0-7.7,1.6-9.9,4.2c-2.1-2.6-5.7-4.2-9.9-4.2
		c-7.5,0-13.8,5.1-13.8,14.2v21.4c0,1.8,1.2,4.9,5.2,4.9c3.9,0,5.2-3.1,5.2-4.9V36.5c0-3.1,1.4-4.9,4.1-4.9c2.6,0,4.1,1.7,4.1,4.9
		v21.9C52.2,60.2,53.4,63.3,57.4,63.3"/>
	<path class="st0" d="M24,62.7c1.6,0,4.5-1.1,4.5-4.4c0-3.3-2.9-4.4-4.5-4.4H10.8v-0.4c0-2,1.6-3.4,9.2-9.3c5.5-4.3,7.2-7.9,7.2-13
		c0-4.2-2.9-7.5-8.5-7.5H4.7c-1.6,0-4.5,1.1-4.5,4.4c0,3.3,2.9,4.4,4.5,4.4h11.8v0.4c0,2-1.6,3.4-9.2,9.3C1.7,46.5,0,50.1,0,55.2
		c0,2.6,2.3,7.5,8.3,7.5H24z"/>
	<path class="st0" d="M198.9,62.7c1.6,0,4.5-1.1,4.5-4.4c0-3.3-2.9-4.4-4.5-4.4h-13.2v-0.4c0-2,1.6-3.4,9.2-9.3
		c5.5-4.3,7.2-7.9,7.2-13c0-4.2-2.9-7.5-8.5-7.5h-14.1c-1.6,0-4.5,1.1-4.5,4.4c0,3.3,2.9,4.4,4.5,4.4h11.8v0.4c0,2-1.6,3.4-9.2,9.3
		c-5.5,4.2-7.2,7.9-7.2,13c0,2.6,2.3,7.5,8.3,7.5H198.9z"/>
	<path class="st0" d="M121.7,31.2c2.7,0,4.6,1.4,4.6,3.8c0,1.9-1.1,3-3.1,3.6l-4,1.1c-0.8,0.2-1.7,0.5-2,0.9V36
		C117.2,33.2,118.7,31.2,121.7,31.2 M126.1,52.4c-0.7,1.8-1.7,2.8-4.5,2.8c-2.7,0-4.5-1.5-4.5-4.2v-1.1c0-1,1-1.7,3.3-2.2l6.3-1.5
		c6.6-1.6,9.9-5,9.9-10.8c0-6.7-5.7-12.5-14.8-12.5c-8,0-15,4.4-15,13.9v12.9c0,8.6,5.9,14,15,14c9,0,14.6-4.7,14.6-10.9v-0.5
		c0-1.7-1.1-4-5.2-4C127.3,48.1,126.8,50.7,126.1,52.4z"/>
	<path class="st0" d="M143.4,58.4c0,1.8,1.2,4.9,5.2,4.9s5.2-3.1,5.2-4.9v-21c0-3.7,2.3-5.8,5.3-5.8c2,0,3.2,0.4,4.6,1.9
		c1.4,1.4,4.7,2.7,6.7,0.6c1.9-2,1.5-4.6,0.2-6.2c-2.7-3.3-7.5-5.1-12.3-5.1c-9.1,0-14.9,5.8-14.9,14.6V58.4z"/>
	<path class="st0" d="M99.2,28.4c0-1.8-1.2-5.3-5.2-5.3c-3.9,0-5.2,3.4-5.2,5.3V58c0,1.8,1.2,5.3,5.2,5.3c3.9,0,5.2-3.4,5.2-5.3
		V28.4z"/>
	<path class="st0" d="M212.4,16.3c-1.5-0.9-2.5-2.5-2.5-4.4c0-2.8,2.2-5,5-5c2.8,0,5,2.2,5,5c0,0.9-0.3,1.8-0.7,2.6
		c0.8,1.2,1.8,2.6,2.9,4.2c0.4,0.6,0.8,1.2,1.1,1.8c2.3-2.2,3.7-5.2,3.7-8.6c0-6.6-5.3-11.9-11.9-11.9c-6.6,0-11.9,5.3-11.9,11.9
		c0,6.6,5.3,11.9,11.9,11.9c0.3,0,0.6,0,1,0C213.7,21.2,212.7,18.6,212.4,16.3"/>
	<g>
		<defs>
			<path id="SVGID_1_" d="M215.1,10.7c0,0-3.8,5.7,1.4,12.3c5.2,6.6,3.8,8,3.8,8s4.9-5.8,0.6-11.9C216.8,12.9,215.1,10.7,215.1,10.7
				"/>
		</defs>
		<clipPath id="SVGID_2_">
			<use xlink:href="#SVGID_1_"  style="overflow:visible;"/>
		</clipPath>
		<linearGradient id="SVGID_3_" gradientUnits="userSpaceOnUse" x1="215.394" y1="11.8756" x2="220.814" y2="28.4656">
			<stop  offset="0" style="stop-color:#009CD8"/>
			<stop  offset="1" style="stop-color:#80AD37"/>
		</linearGradient>
		<rect x="211.4" y="10.7" class="st1" width="13.9" height="20.3"/>
	</g>
</g>
</svg>
